<svg width="401" height="400" viewBox="0 0 401 400" fill="none" xmlns="http://www.w3.org/2000/svg">
<path d="M186.006 0C224.551 0 259.859 11.8604 286.431 32.5225C354.071 41.86 397.59 102.148 400.63 171.127C400.743 173.698 400.8 176.28 400.8 178.873C400.8 179.437 400.797 180.001 400.792 180.563C400.421 220.501 386.915 256.819 363.846 283.238C356.4 349.435 299.196 393.133 231.952 399.259C228.796 399.546 225.618 399.751 222.422 399.871C220.155 399.957 217.878 400 215.594 400C177.048 400 141.741 388.139 115.169 367.477C47.5288 358.139 4.01063 297.852 0.970703 228.873C0.857415 226.302 0.799808 223.72 0.799805 221.127C0.799805 220.563 0.802392 219.999 0.807617 219.437C1.17839 179.499 14.6834 143.18 37.7529 116.761C45.1985 50.5644 102.404 6.86712 169.647 0.741211C172.804 0.453696 175.982 0.248356 179.179 0.12793C181.446 0.0425163 183.722 4.37964e-06 186.006 0ZM211.581 306.215C203.981 341.541 172.307 368.314 134.543 368.726C159.051 381.979 187.772 389.014 215.594 389.014C217.881 389.014 220.157 388.966 222.422 388.877V313.913C218.654 311.666 215.035 309.104 211.581 306.215ZM358.761 288.744C336.477 311.535 306.439 325.707 271.354 326.479C257.219 326.478 243.962 324.015 231.952 318.797V388.238C295.764 382.168 348.166 341.087 358.761 288.744ZM80.2578 228.873C73.5714 240.886 69.9326 254.469 69.9326 268.451C69.9328 311.328 93.9846 344.177 127.509 364.679C128.418 364.727 129.33 364.765 130.245 364.789C169.002 364.789 201.815 340.351 208.207 303.239C205.637 300.853 203.165 298.274 200.8 295.493C198.524 293.24 195.11 291.549 191.696 291.549C184.868 291.549 179.179 297.183 179.179 304.507C179.179 305.069 178.611 305.632 178.609 305.634L164.953 320.281C164.384 320.844 163.816 320.845 163.247 320.845H162.678C161.54 320.845 161.54 319.719 161.54 319.155V293.239C161.54 284.225 167.799 276.338 176.902 274.647C177.329 274.647 177.756 274.569 178.183 274.47L179.036 274.263C179.463 274.164 179.89 274.085 180.316 274.085C187.144 274.085 192.834 277.465 196.248 282.535C199.842 288.466 204.089 293.841 208.859 298.597C209.172 295.75 209.335 292.837 209.335 289.859C209.335 269.578 201.369 249.859 186.575 235.774C184.107 233.679 181.966 231.367 180.188 228.873H80.2578ZM12.0752 228.873C15.0699 293.874 55.4892 348.636 108.35 361.807C83.1613 339.439 67.3394 308.404 66.5186 271.831C66.5186 256.269 69.5931 241.782 76.1484 228.873H12.0752ZM285.011 193.521C265.267 193.521 246.053 200.85 231.952 214.496V314.911C243.068 320.23 255.343 323.099 267.94 323.099C308.249 323.099 339.782 302.464 360.651 272.839C360.664 272.503 360.677 272.167 360.686 271.831C360.686 236.02 339.192 205.331 305.859 196.248C305.181 196.848 304.491 197.442 303.787 198.028C301.511 200.282 299.804 203.662 299.804 207.042C299.804 213.802 305.494 219.436 312.891 219.437C313.46 219.437 314.029 220 314.029 220L328.822 233.521C329.391 234.085 329.392 234.648 329.392 235.211V235.774C329.392 236.901 328.254 236.901 327.685 236.901H301.511C292.407 236.901 284.441 230.704 282.734 221.69C282.734 221.268 282.655 220.845 282.555 220.423L282.346 219.577C282.246 219.155 282.165 218.732 282.165 218.31C282.165 211.549 285.579 205.915 290.7 202.535C294.438 200.314 297.957 197.839 301.242 195.146C296.078 194.081 290.657 193.522 285.011 193.521ZM222.422 223.051C217.454 226.278 211.811 228.146 205.738 228.414C203.087 228.728 200.291 228.873 197.386 228.873H185.023C186.174 230.172 187.452 231.355 188.852 232.395V232.958C204.783 247.606 213.317 268.451 213.317 289.859C213.317 293.954 212.997 297.978 212.382 301.909C215.544 304.719 218.901 307.278 222.422 309.566V223.051ZM319.835 180.563C316.744 185.044 313.16 189.289 309.062 193.275C340.723 203.278 363.948 232.451 364.65 266.846C380.677 241.496 389.38 210.565 389.695 180.563H319.835ZM36.9482 133.153C20.9212 158.503 12.2198 189.435 11.9043 219.437H81.7656C84.8561 214.956 88.439 210.709 92.5361 206.724C60.8757 196.72 37.6503 167.548 36.9482 133.153ZM169.649 190.517C155.235 203.509 136.145 210.423 116.59 210.423C109.763 210.423 103.13 209.56 96.7959 207.941C92.947 211.473 89.4676 215.325 86.3848 219.437H175.49C174.746 217.025 174.282 214.513 174.122 211.919C170.978 206.3 169.687 198.874 169.649 190.517ZM179.162 218.02C179.297 218.497 179.445 218.969 179.603 219.437H181.146C180.448 219.002 179.788 218.529 179.162 218.02ZM222.422 207.613C219.187 212.659 214.594 216.768 209.155 219.437H211.042C215.527 219.436 219.54 217.569 222.422 214.57V207.613ZM207.059 180.563C193.902 181.029 182.687 189.947 179.179 201.923V203.662C179.179 212.113 186.006 218.873 194.541 219.437C207.698 218.971 218.914 210.053 222.422 198.076V196.338C222.422 187.887 215.593 181.127 207.059 180.563ZM226.109 180.563C226.854 182.975 227.316 185.486 227.477 188.079C230.621 193.698 231.912 201.125 231.949 209.482C246.364 196.49 265.455 189.577 285.011 189.577C291.837 189.577 298.47 190.439 304.804 192.058C308.653 188.526 312.133 184.675 315.216 180.563H226.109ZM133.659 76.9014C93.3505 76.9014 61.8172 97.5357 40.9482 127.161C40.936 127.497 40.9229 127.833 40.9141 128.169C40.9141 163.98 62.4075 194.667 95.7402 203.751C96.4184 203.151 97.1091 202.558 97.8125 201.972C100.088 199.718 101.796 196.338 101.796 192.958C101.796 186.197 96.1058 180.563 88.709 180.563C88.1454 180.563 87.582 180.011 87.5713 180L72.7773 166.479C72.2086 165.915 72.208 165.352 72.208 164.789V164.226C72.208 163.099 73.346 163.099 73.915 163.099H100.089C109.193 163.099 117.158 169.296 118.865 178.31C118.865 178.873 119.008 179.437 119.15 180C119.293 180.563 119.435 181.127 119.435 181.69C119.434 188.451 116.02 194.085 110.899 197.465C107.161 199.686 103.642 202.16 100.356 204.854C105.521 205.918 110.943 206.479 116.59 206.479C136.333 206.478 155.547 199.149 169.647 185.503V85.0869C158.532 79.7686 146.256 76.9014 133.659 76.9014ZM190.559 180.563C186.074 180.563 182.06 182.43 179.179 185.428V192.385C182.414 187.34 187.006 183.232 192.444 180.563H190.559ZM220.454 180.563C221.152 180.998 221.812 181.471 222.438 181.98C222.303 181.503 222.156 181.031 221.998 180.563H220.454ZM179.179 176.948C184.146 173.721 189.788 171.853 195.86 171.585C198.512 171.271 201.308 171.127 204.214 171.127H216.577C215.427 169.828 214.149 168.645 212.749 167.605V167.042C196.817 152.394 188.282 131.549 188.282 110.141C188.282 106.046 188.601 102.021 189.217 98.0898C186.055 95.2803 182.699 92.7214 179.179 90.4336V176.948ZM293.25 38.1924C318.439 60.5601 334.26 91.5953 335.081 128.169C335.081 143.731 332.007 158.218 325.452 171.127H389.524C386.53 106.126 346.111 51.3626 293.25 38.1924ZM271.354 35.2109C232.599 35.211 199.786 59.6478 193.393 96.7588C195.963 99.1454 198.435 101.726 200.8 104.507C203.076 106.76 206.49 108.451 209.903 108.451C216.731 108.451 222.422 102.817 222.422 95.4932C222.422 94.9352 222.98 94.3768 222.99 94.3662L236.646 79.7188C237.215 79.1554 237.785 79.1553 238.354 79.1553H238.922C240.06 79.1553 240.061 80.2812 240.061 80.8447V106.761C240.06 115.775 233.801 123.662 224.697 125.353C224.271 125.353 223.844 125.431 223.417 125.53L222.563 125.737C222.137 125.836 221.71 125.915 221.283 125.915C214.455 125.915 208.765 122.535 205.352 117.465C201.758 111.534 197.51 106.158 192.739 101.402C192.427 104.249 192.265 107.163 192.265 110.141C192.265 130.422 200.231 150.141 215.024 164.226C217.493 166.321 219.633 168.633 221.412 171.127H321.342C328.028 159.114 331.668 145.531 331.668 131.549C331.668 88.6716 307.615 55.8227 274.091 35.3213C273.181 35.2732 272.269 35.2346 271.354 35.2109ZM169.647 11.7607C105.836 17.8309 53.4316 58.9127 42.8369 111.256C65.1209 88.4641 95.1604 74.2935 130.245 73.5215C144.381 73.5215 157.638 75.9847 169.647 81.2021V11.7607ZM186.006 10.9863C183.719 10.9863 181.443 11.0329 179.179 11.1221V86.0859C182.946 88.3329 186.564 90.8942 190.018 93.7822C197.619 58.4576 229.293 31.6854 267.057 31.2734C242.548 18.0203 213.828 10.9863 186.006 10.9863Z" fill="black"/>
</svg>
